# xmcd CD database file
#
# Track frame offsets:
#	225
#	37213
#	46001
#	80768
#	97400
#	128469
#
# Disc length: 2200 seconds
#
# Revision: 0
# Processed by: cddbd v1.5.2PL0 Copyright (c) Steve Scherf et al.
# Submitted via: CDex 1.51
#
DISCID=4d089506
DTITLE=Joe Harriott_Amancio D'Silva Quartet - Hum Dono
DYEAR=1969
DGENRE=Jazz
TTITLE0=Stephano's Dance
TTITLE1=Spring Low, Sweet Harriott
TTITLE2=Ballad for Goa
TTITLE3=N.N.N.T.
TTITLE4=Hum Dono
TTITLE5=Jaipur
EXTD=YEAR: 1969
EXTT0=
EXTT1=
EXTT2=
EXTT3=
EXTT4=
EXTT5=
PLAYORDER=
